<?xml version="1.0" encoding="utf-8"?>
<!-- Generator: Adobe Illustrator 18.0.0, SVG Export Plug-In . SVG Version: 6.00 Build 0)  -->
<!DOCTYPE svg PUBLIC "-//W3C//DTD SVG 1.1//EN" "http://www.w3.org/Graphics/SVG/1.1/DTD/svg11.dtd">
<svg version="1.1" id="Layer_1" xmlns="http://www.w3.org/2000/svg" xmlns:xlink="http://www.w3.org/1999/xlink" x="0px" y="0px"
	 viewBox="0 0 22.8 18.9" enable-background="new 0 0 22.8 18.9" xml:space="preserve">
<g>
	<polygon fill="#FFFFFF" points="21.1,4.8 18.1,1.7 8.7,11.1 4.8,7.1 1.7,10.2 8.7,17.2 8.7,17.2 8.7,17.2 	"/>
	<path fill="#3A80AF" d="M18.1,1.7l3.1,3.1L8.7,17.2l0,0l0,0l-7-7l3.1-3.1l3.9,3.9L18.1,1.7 M18.1,0l-0.8,0.8L8.7,9.4L5.6,6.3
		L4.8,5.4L3.9,6.3L0.8,9.3L0,10.2L0.8,11l7,7l0.8,0.8l0,0l0,0L9.5,18L22,5.6l0.8-0.8L22,3.9l-3.1-3.1L18.1,0L18.1,0z"/>
</g>
</svg>
